<svg height='100px' width='100px'  fill="#000000" xmlns="http://www.w3.org/2000/svg" xmlns:xlink="http://www.w3.org/1999/xlink" version="1.1" preserveAspectRatio="none" x="0px" y="0px" viewBox="0 0 100 100"><defs><g id="a"><path fill="#000000" stroke="none" d=" M 90 51.8 Q 90.7466796875 51.801171875 91.25 51.25 91.801171875 50.7466796875 91.8 50 91.801171875 49.2533203125 91.25 48.7 L 51.25 8.7 Q 50.7466796875 8.198828125 50 8.2 49.2533203125 8.198828125 48.7 8.7 L 8.7 48.7 Q 8.198828125 49.2533203125 8.2 50 8.198828125 50.7466796875 8.7 51.25 9.2533203125 51.801171875 10 51.8 L 28.2 51.8 28.2 90 Q 28.198828125 90.7466796875 28.7 91.25 29.2533203125 91.801171875 30 91.8 L 70 91.8 Q 70.7466796875 91.801171875 71.25 91.25 71.801171875 90.7466796875 71.8 90 L 71.8 51.8 90 51.8 M 70 48.2 Q 69.2533203125 48.198828125 68.7 48.7 68.198828125 49.2533203125 68.2 50 L 68.2 88.2 31.8 88.2 31.8 50 Q 31.801171875 49.2533203125 31.25 48.7 30.7466796875 48.198828125 30 48.2 L 14.35 48.2 50 12.55 85.65 48.2 70 48.2 Z"></path></g></defs><g transform="matrix( 1, 0, 0, 1, 0,0) "><use xlink:href="#a"></use></g></svg>