<svg height='100px' width='100px'  fill="#000000" xmlns="http://www.w3.org/2000/svg" xmlns:xlink="http://www.w3.org/1999/xlink" version="1.1" x="0px" y="0px" viewBox="0 0 48 48" style="enable-background:new 0 0 48 48;" xml:space="preserve"><path d="M9.47,38.5c1.38,0,2.5-1.12,2.5-2.5s-1.12-2.5-2.5-2.5s-2.5,1.12-2.5,2.5S8.09,38.5,9.47,38.5z M9.47,34.5  c0.83,0,1.5,0.67,1.5,1.5s-0.67,1.5-1.5,1.5s-1.5-0.67-1.5-1.5S8.64,34.5,9.47,34.5z"></path><path d="M9.47,29.5c0.28,0,0.5-0.22,0.5-0.5V10c0-0.28-0.22-0.5-0.5-0.5s-0.5,0.22-0.5,0.5v19C8.97,29.28,9.19,29.5,9.47,29.5z"></path><path d="M17.47,38.5c1.38,0,2.5-1.12,2.5-2.5s-1.12-2.5-2.5-2.5s-2.5,1.12-2.5,2.5S16.09,38.5,17.47,38.5z M17.47,34.5  c0.83,0,1.5,0.67,1.5,1.5s-0.67,1.5-1.5,1.5s-1.5-0.67-1.5-1.5S16.64,34.5,17.47,34.5z"></path><path d="M17.47,29.5c0.28,0,0.5-0.22,0.5-0.5V10c0-0.28-0.22-0.5-0.5-0.5s-0.5,0.22-0.5,0.5v19C16.97,29.28,17.19,29.5,17.47,29.5z"></path><path d="M43.01,41.58L30.47,3.6c-0.09-0.26-0.37-0.41-0.63-0.32l-7.6,2.51c-0.12,0.04-0.21,0.12-0.27,0.23V4  c0-0.28-0.22-0.5-0.5-0.5h-8h-8c-0.28,0-0.5,0.22-0.5,0.5v40c0,0.28,0.22,0.5,0.5,0.5h8h8c0.28,0,0.5-0.22,0.5-0.5V6.55l12.5,37.85  c0.04,0.13,0.13,0.23,0.25,0.29c0.07,0.04,0.15,0.05,0.22,0.05c0.05,0,0.11-0.01,0.16-0.03l7.6-2.51  C42.95,42.13,43.1,41.84,43.01,41.58z M12.97,43.5h-7v-39h7V43.5z M20.97,43.5h-7v-39h7V43.5z M35.26,43.61L23.03,6.58l6.65-2.19  L41.9,41.42L35.26,43.61z"></path><path d="M33.85,36.18c0.21,0.63,0.65,1.15,1.25,1.45c0.35,0.18,0.74,0.27,1.12,0.27c0.26,0,0.53-0.04,0.79-0.13  c0.63-0.21,1.15-0.65,1.45-1.25c0.3-0.6,0.35-1.27,0.14-1.91c-0.21-0.63-0.65-1.15-1.25-1.45c-0.6-0.3-1.27-0.35-1.91-0.14  c-0.63,0.21-1.15,0.65-1.45,1.25C33.69,34.87,33.64,35.54,33.85,36.18z M34.89,34.72c0.18-0.36,0.49-0.62,0.87-0.75  c0.16-0.05,0.31-0.08,0.47-0.08c0.63,0,1.22,0.4,1.43,1.03c0.13,0.38,0.1,0.79-0.08,1.14c-0.18,0.36-0.49,0.62-0.87,0.75  c-0.38,0.13-0.79,0.1-1.14-0.08c-0.36-0.18-0.62-0.49-0.75-0.87C34.68,35.49,34.71,35.08,34.89,34.72z"></path><path d="M27.92,10.23c-0.26,0.09-0.4,0.37-0.32,0.63l5.96,18.04c0.07,0.21,0.26,0.34,0.47,0.34c0.05,0,0.1-0.01,0.16-0.03  c0.26-0.09,0.41-0.37,0.32-0.63l-5.96-18.04C28.46,10.29,28.18,10.14,27.92,10.23z"></path></svg>