<svg height='100px' width='100px'  fill="#000000" xmlns="http://www.w3.org/2000/svg" xmlns:xlink="http://www.w3.org/1999/xlink" version="1.1" x="0px" y="0px" viewBox="0 0 48 48" enable-background="new 0 0 48 48" xml:space="preserve"><g><path fill="#000000" d="M11.9,43V18.2h0.8v-2h-0.8H4.7H4v2h0.7V43H11.9z M9.9,18.2V41H6.7V18.2H9.9z"></path><path fill="#000000" d="M27.6,43c0,0,0-21.4,0-24.8h0.7v-2h-0.7h-7.2h-0.8v2h0.8V43H27.6z M25.6,18.2V41h-3.2V18.2H25.6z"></path><path fill="#000000" d="M43.3,43V18.2H44v-2h-0.7h-7.2h-0.8v2h0.8V43H43.3z M41.3,18.2V41h-3.2V18.2H41.3z"></path><path fill="#000000" d="M47,12.4L24.4,0.6c-0.3-0.2-0.6-0.2-0.9,0L1,12.4c-0.4,0.2-0.6,0.6-0.5,1c0.1,0.5,0.5,0.8,1,0.8h45   c0.5,0,0.9-0.3,1-0.7S47.4,12.6,47,12.4z M5.6,12.2L24,2.6l18.4,9.6H5.6z"></path><rect x="1.5" y="45.5" fill="#000000" width="45" height="2"></rect></g></svg>