<svg height='100px' width='100px'  fill="#000000" xmlns:dc="http://purl.org/dc/elements/1.1/" xmlns:cc="http://creativecommons.org/ns#" xmlns:rdf="http://www.w3.org/1999/02/22-rdf-syntax-ns#" xmlns:svg="http://www.w3.org/2000/svg" xmlns="http://www.w3.org/2000/svg" xmlns:sodipodi="http://sodipodi.sourceforge.net/DTD/sodipodi-0.dtd" xmlns:inkscape="http://www.inkscape.org/namespaces/inkscape" version="1.1" x="0px" y="0px" viewBox="0 0 100 100"><g transform="translate(0,-952.36218)"><path style="text-indent:0;text-transform:none;direction:ltr;block-progression:tb;baseline-shift:baseline;color:#000000;enable-background:accumulate;" d="m 49.866897,957.40511 a 2.9926849,2.9967896 0 0 0 -2.961215,3.05891 l 0,2.99649 -33.913705,0 a 2.9926849,2.9967896 0 0 0 -0.311706,0 2.9964417,3.0005515 0 1 0 0.311706,5.99298 l 0.997462,0 0,37.95561 -0.997462,0 a 2.9926849,2.9967896 0 0 0 -0.311706,0 2.9964417,3.0005515 0 1 0 0.311706,5.9929 l 22.31821,0 -10.099301,22.7546 a 3.0003503,3.0044655 0 1 0 5.48604,2.4346 l 11.159105,-25.1892 5.049651,0 0,30.9638 a 2.9926849,2.9967896 0 1 0 5.984771,0 l 0,-30.9638 5.049651,0 11.159105,25.1892 a 3.0003503,3.0044655 0 0 0 5.486041,-2.4346 l -10.099302,-22.7546 22.31821,0 a 2.9926849,2.9967896 0 1 0 0,-5.9929 l -0.997462,0 0,-37.95561 0.997462,0 a 2.9926849,2.9967896 0 1 0 0,-5.99298 l -33.913705,0 0,-2.99649 a 2.9926849,2.9967896 0 0 0 -3.023556,-3.05891 z m -29.892686,12.04838 59.847714,0 0,37.95561 -59.847714,0 0,-37.95561 z" fill="#000000" fill-opacity="1" stroke="none" marker="none" visibility="visible" display="inline" overflow="visible"></path></g></svg>