<svg height='100px' width='100px'  fill="#000000" xmlns="http://www.w3.org/2000/svg" xmlns:xlink="http://www.w3.org/1999/xlink" version="1.1" x="0px" y="0px" viewBox="0 0 90 90" style="enable-background:new 0 0 90 90;" xml:space="preserve"><path d="M19.5481491,26.7858028c0.0286255,0.5733643,0.1488037,1.1293945,0.2562256,1.68927l0.3213501,1.6832886  c0.3398438,2.2767925,1.0802002,4.4490948,1.7296753,6.6689434c1.5539551,4.3267212,3.4719238,8.6252441,6.1567383,12.4702148  c1.213623,2.0210571,2.7880249,3.7681274,4.2522583,5.6296387c0.7705078,0.894165,1.6297607,1.7064209,2.4480591,2.56604  l1.2474365,1.2739868c0.4196167,0.421875,0.8944702,0.7787476,1.3410645,1.1717529l2.7371216,2.3091431  c0.960022,0.7076416,1.9558716,1.3712769,2.9405518,2.0592079l1.4868774,1.0230713  c0.5147705,0.3083496,1.0447998,0.5913086,1.5686646,0.8880615l3.0796509,1.7150879l-2.1990967,5.1664429  c8.8623047,0.1603394,17.0915527-1.8261719,23.9257202-5.1616211c-6.8599854-3.3522949-12.3409424-8.0473061-16.0707397-13.2924232  l-2.1990356,5.1663208l-2.7608032-1.0962524c-0.4737549-0.1917725-0.9564819-0.3694458-1.4269409-0.5725098l-1.3624268-0.7069702  c-0.9071045-0.4770508-1.8360596-0.9293213-2.7406006-1.4269409l-2.6026611-1.6825562  c-0.4293823-0.2892456-0.8897095-0.5428467-1.2974854-0.8621216l-1.2195435-0.9678955  c-0.8046265-0.6566772-1.6602783-1.2686768-2.4371338-1.9663086c-1.4763794-1.4678955-3.1020508-2.8360596-4.4008179-4.4975586  c-2.8555298-3.1265869-5.0822754-6.7866821-7.0424194-10.598999c-0.8522949-1.9620972-1.8195801-3.907774-2.4037476-5.9921856  l-0.5078125-1.5454102c-0.1705933-0.5160522-0.3549194-1.0305176-0.4485474-1.5647583l-0.7020264-3.1911011  c-0.265564-1.0200195-0.3547363-1.9315796-0.4715576-2.7122803c-0.1170044-0.7806396-0.2320557-1.4336548-0.3432617-1.9576416  c-0.2225342-1.0478516-0.4295654-1.5796509-0.6096191-1.5797119s-0.3334351,0.5321655-0.4486694,1.6123657  c-0.0576172,0.5401001-0.1055908,1.2171021-0.1421509,2.0324707c-0.0367432,0.8153076-0.0918579,1.7719116,0.0432739,2.8502197  L19.5481491,26.7858028z"></path></svg>