<svg height='100px' width='100px'  fill="#000000" xmlns="http://www.w3.org/2000/svg" xmlns:xlink="http://www.w3.org/1999/xlink" xml:space="preserve" version="1.1" style="shape-rendering:geometricPrecision;text-rendering:geometricPrecision;image-rendering:optimizeQuality;" viewBox="0 0 337 337" x="0px" y="0px" fill-rule="evenodd" clip-rule="evenodd"><defs><style type="text/css">
   
    .fil0 {fill:#000000;fill-rule:nonzero}
   
  </style></defs><g><path class="fil0" d="M9 177c-5,0 -9,-4 -9,-8 0,-94 75,-169 169,-169 93,0 168,75 168,169 0,93 -75,168 -168,168 -64,0 -122,-35 -150,-92 -3,-4 -1,-9 3,-11 4,-2 9,0 12,4 26,50 78,82 135,82 83,0 151,-68 151,-151 0,-84 -68,-152 -151,-152 -81,0 -147,63 -152,143l155 0 -30 -26c-4,-3 -4,-8 -1,-12 3,-3 8,-4 12,-1l47 41c4,4 4,10 0,13l-47 41c-4,3 -9,2 -12,-1 -3,-4 -3,-9 1,-12l30 -26 -163 0z"></path></g></svg>