<svg height='100px' width='100px'  fill="#000000" xmlns:x="http://ns.adobe.com/Extensibility/1.0/" xmlns:i="http://ns.adobe.com/AdobeIllustrator/10.0/" xmlns:graph="http://ns.adobe.com/Graphs/1.0/" xmlns="http://www.w3.org/2000/svg" xmlns:xlink="http://www.w3.org/1999/xlink" version="1.1" x="0px" y="0px" viewBox="0 0 100 100" style="enable-background:new 0 0 100 100;" xml:space="preserve"><g><g i:extraneous="self"><g><path d="M28.3,55.8c-1.9-2.8-3.2-5.9-3.9-9.3c-0.2-0.9-1-1.6-1.9-1.6H4.5c-1.2,0-2.1,1-1.9,2.1c1.1,9,4.6,17.2,9.9,23.9     c0.4,0.5,0.9,0.7,1.5,0.7c0.5,0,1-0.2,1.4-0.6l12.8-12.8C28.8,57.6,28.8,56.6,28.3,55.8z M14.3,64.8c-3-4.5-5-9.5-6.1-14.8H20     c0.6,2.2,1.5,4.4,2.6,6.4L14.3,64.8z"></path><path d="M4.5,37.9h18.1c0.9,0,1.7-0.7,1.9-1.6c0.7-3.4,2-6.5,3.9-9.3c0.5-0.8,0.5-1.8-0.2-2.5L15.3,11.7     c-0.4-0.4-0.9-0.6-1.4-0.6c-0.6,0-1.1,0.2-1.5,0.7c-5.3,6.7-8.8,14.9-9.9,23.9C2.4,36.9,3.3,37.9,4.5,37.9z M14.3,18l8.4,8.4     c-1.1,2-2,4.2-2.6,6.4H8.2C9.3,27.5,11.4,22.5,14.3,18z"></path><path d="M95.5,44.9H77.4c-0.9,0-1.7,0.7-1.9,1.6c-0.7,3.4-2,6.5-3.9,9.3c-0.5,0.8-0.5,1.8,0.2,2.5l12.8,12.8     c0.4,0.4,0.9,0.6,1.4,0.6c0.6,0,1.1-0.2,1.5-0.7c5.3-6.7,8.8-14.9,9.9-23.9C97.6,45.9,96.7,44.9,95.5,44.9z M85.7,64.8l-8.4-8.4     c1.1-2,2-4.2,2.6-6.4h11.8C90.7,55.3,88.6,60.3,85.7,64.8z"></path><path d="M44.9,66.9c-3.4-0.7-6.5-2-9.3-3.9c-0.3-0.2-0.7-0.3-1.1-0.3c-0.5,0-1,0.2-1.3,0.6L20.3,76.1c-0.8,0.8-0.8,2.2,0.1,2.9     c6.7,5.3,14.9,8.8,23.9,9.9c0.1,0,0.1,0,0.2,0c1.1,0,1.9-0.9,1.9-2V68.8C46.5,67.9,45.8,67.1,44.9,66.9z M41.3,83.2     c-5.3-1.1-10.3-3.2-14.8-6.1l8.4-8.4c2,1.1,4.2,2,6.4,2.6V83.2z"></path><path d="M75.5,36.3c0.2,0.9,1,1.6,1.9,1.6h18.1c1.2,0,2.1-1,1.9-2.1c-1.1-9-4.6-17.2-9.9-23.9c-0.4-0.5-0.9-0.7-1.5-0.7     c-0.5,0-1,0.2-1.4,0.6L71.9,24.5c-0.7,0.7-0.7,1.7-0.2,2.5C73.5,29.7,74.9,32.9,75.5,36.3z M85.7,18c3,4.5,5,9.5,6.1,14.8H80     c-0.6-2.2-1.5-4.4-2.6-6.4L85.7,18z"></path><path d="M66.9,63.3c-0.4-0.4-0.8-0.6-1.3-0.6c-0.4,0-0.8,0.1-1.1,0.3c-2.8,1.8-5.9,3.2-9.3,3.9c-0.9,0.2-1.6,0.9-1.6,1.9v18.1     c0,1.1,0.9,2,1.9,2c0.1,0,0.1,0,0.2,0c9-1.1,17.2-4.6,23.9-9.9c0.9-0.7,1-2.1,0.1-2.9L66.9,63.3z M58.7,83.2V71.4     c2.2-0.6,4.4-1.5,6.4-2.6l8.4,8.4C68.9,80,63.9,82.1,58.7,83.2z"></path><path d="M65.8,41.3c0-6.9-9-22.5-11.9-27.1C53.1,12.8,51.6,12,50,12c-1.6,0-3.1,0.9-3.9,2.2c-2.8,4.6-11.9,20.2-11.9,27.1     C34.2,50,41.3,57,50,57S65.8,50,65.8,41.3z M50,52.1c-6,0-10.8-4.8-10.8-10.8c0-5.1,8-19.1,10.4-23.3l0.4-0.7l0.3,0.7     c2.5,4.2,10.4,18.2,10.4,23.3C60.8,47.2,55.9,52.1,50,52.1z"></path><path d="M48.3,32c-0.9-0.5-2-0.3-2.6,0.6c-0.2,0.3-5,8.1-1,14.2c0.4,0.5,0.9,0.8,1.5,0.8c0.4,0,0.7-0.1,1-0.3     c0.8-0.6,1.1-1.7,0.5-2.6c-2.7-4.1,1-10.1,1-10.1C49.5,33.6,49.2,32.5,48.3,32z"></path></g></g></g></svg>