<svg height='100px' width='100px'  fill="#000000" xmlns="http://www.w3.org/2000/svg" viewBox="0 0 64 64" x="0px" y="0px"><title>book, read, handbook, guideline</title><g><path d="M25.625,22.481a1.5,1.5,0,0,1-1.5,1.5H16.2a1.5,1.5,0,0,1,0-3h7.926A1.5,1.5,0,0,1,25.625,22.481Zm-1.5,6.463H16.2a1.5,1.5,0,0,0,0,3h7.926a1.5,1.5,0,0,0,0-3Zm15.75-4.963H47.8a1.5,1.5,0,0,0,0-3H39.875a1.5,1.5,0,0,0,0,3Zm0,7.963H47.8a1.5,1.5,0,0,0,0-3H39.875a1.5,1.5,0,0,0,0,3Zm22.2-13.656V50.712a1.5,1.5,0,0,1-1.5,1.5H3.425a1.5,1.5,0,0,1-1.5-1.5V18.288a1.5,1.5,0,0,1,3,0V49.212H30.778l-.53-.7a6.751,6.751,0,0,0-5.356-2.666H8.24a1.5,1.5,0,0,1-1.5-1.5V13.288a1.5,1.5,0,0,1,1.5-1.5H24.892A9.763,9.763,0,0,1,32,14.894a9.767,9.767,0,0,1,7.108-3.106H55.761a1.5,1.5,0,0,1,1.5,1.5V44.343a1.5,1.5,0,0,1-1.5,1.5H39.108a6.749,6.749,0,0,0-5.356,2.667l-.53.7H59.075V18.288a1.5,1.5,0,1,1,3,0Zm-28.323-.833-.252.334v26.86a9.745,9.745,0,0,1,5.608-1.806H54.261V14.788H39.108A6.749,6.749,0,0,0,33.752,17.455ZM30.5,44.649V17.789l-.252-.334a6.749,6.749,0,0,0-5.356-2.667H9.74V42.843H24.892A9.745,9.745,0,0,1,30.5,44.649Z"></path></g></svg>