<svg height='100px' width='100px'  fill="#000000" xmlns:dc="http://purl.org/dc/elements/1.1/" xmlns:cc="http://creativecommons.org/ns#" xmlns:rdf="http://www.w3.org/1999/02/22-rdf-syntax-ns#" xmlns:svg="http://www.w3.org/2000/svg" xmlns="http://www.w3.org/2000/svg" xmlns:sodipodi="http://sodipodi.sourceforge.net/DTD/sodipodi-0.dtd" xmlns:inkscape="http://www.inkscape.org/namespaces/inkscape" version="1.1" x="0px" y="0px" viewBox="0 0 99.999998 100" xml:space="preserve"><path style="font-size:medium;font-style:normal;font-variant:normal;font-weight:normal;font-stretch:normal;text-indent:0;text-align:start;text-decoration:none;line-height:normal;letter-spacing:normal;word-spacing:normal;text-transform:none;direction:ltr;block-progression:tb;writing-mode:lr-tb;text-anchor:start;baseline-shift:baseline;opacity:1;color:#000000;fill:#000000;fill-opacity:1;stroke:none;stroke-width:4;marker:none;visibility:visible;display:inline;overflow:visible;enable-background:accumulate;font-family:Sans;-inkscape-font-specification:Sans" d="M 15.8125 6 A 2.0002 2.0002 0 0 0 14 8 L 14 68 A 2.0002 2.0002 0 0 0 16 70 L 38.75 70 L 28.21875 91.09375 A 2.0002 2.0002 0 1 0 31.78125 92.90625 L 43.25 70 L 48 70 L 48 86 A 2.0002 2.0002 0 1 0 52 86 L 52 70 L 56.75 70 L 68.21875 92.90625 A 2.0002 2.0002 0 1 0 71.78125 91.09375 L 61.25 70 L 84 70 A 2.0002 2.0002 0 0 0 86 68 L 86 8 A 2.0002 2.0002 0 0 0 84 6 L 16 6 A 2.0002 2.0002 0 0 0 15.8125 6 z M 18 10 L 82 10 L 82 66 L 50.375 66 A 2.0002 2.0002 0 0 0 49.96875 65.96875 A 2.0002 2.0002 0 0 0 49.5625 66 L 18 66 L 18 10 z "></path></svg>