<svg height='100px' width='100px'  fill="#000000" xmlns="http://www.w3.org/2000/svg" xmlns:xlink="http://www.w3.org/1999/xlink" version="1.1" x="0px" y="0px" viewBox="0 0 48 48" enable-background="new 0 0 48 48" xml:space="preserve"><path fill="#000000" d="M25.9,0.6C11.4-0.6-0.6,11.4,0.6,25.9c0.9,11.4,10.1,20.6,21.5,21.5c14.5,1.1,26.5-10.9,25.3-25.3  C46.5,10.7,37.3,1.5,25.9,0.6z M26.4,27.6l-13.6,8.2c-0.4,0.3-0.9-0.2-0.6-0.6l8.2-13.6c0.3-0.5,0.7-0.8,1.1-1.1l13.6-8.2  c0.4-0.3,0.9,0.2,0.6,0.6l-8.2,13.6C27.3,26.9,26.9,27.3,26.4,27.6z"></path></svg>