<svg height='100px' width='100px'  fill="#000000" xmlns:x="http://ns.adobe.com/Extensibility/1.0/" xmlns:i="http://ns.adobe.com/AdobeIllustrator/10.0/" xmlns:graph="http://ns.adobe.com/Graphs/1.0/" xmlns="http://www.w3.org/2000/svg" xmlns:xlink="http://www.w3.org/1999/xlink" version="1.1" x="0px" y="0px" viewBox="0 0 100 100" style="enable-background:new 0 0 100 100;" xml:space="preserve"><g><g i:extraneous="self"><g><path d="M54.6,44.2L16.5,6.1c-3.2-3.2-8.4-3.2-11.6,0c-3.2,3.2-3.2,8.4,0,11.6L37.2,50L4.9,82.3c-3.2,3.2-3.2,8.4,0,11.6     c1.6,1.6,3.7,2.4,5.8,2.4s4.2-0.8,5.8-2.4l38.1-38.1C57.8,52.6,57.8,47.4,54.6,44.2z"></path><path d="M95.1,44.2L57,6.1c-3.2-3.2-8.4-3.2-11.6,0c-3.2,3.2-3.2,8.4,0,11.6L77.7,50L45.4,82.3c-3.2,3.2-3.2,8.4,0,11.6     c1.6,1.6,3.7,2.4,5.8,2.4s4.2-0.8,5.8-2.4l38.1-38.1C98.3,52.6,98.3,47.4,95.1,44.2z"></path></g></g></g></svg>