<svg height='100px' width='100px'  fill="#000000" xmlns="http://www.w3.org/2000/svg" xmlns:xlink="http://www.w3.org/1999/xlink" version="1.1" x="0px" y="0px" viewBox="0 0 100 100" enable-background="new 0 0 100 100" xml:space="preserve"><g><g><g><path d="M32,38h26.4c1.3,0,2.4-1.1,2.4-2.4c0-1.3-1.1-2.4-2.4-2.4H32c-1.3,0-2.4,1.1-2.4,2.4C29.6,36.9,30.7,38,32,38z"></path><path d="M32,62h9.6c1.3,0,2.4-1.1,2.4-2.4c0-1.3-1.1-2.4-2.4-2.4H32c-1.3,0-2.4,1.1-2.4,2.4C29.6,60.9,30.7,62,32,62z"></path><path d="M94.4,64.4H77.6c-1.3,0-2.4,1.1-2.4,2.4c0,1.3,1.1,2.4,2.4,2.4h14.1c-1.1,4.1-4.8,7.2-9.3,7.2c-5.3,0-9.6-4.3-9.6-9.6V20     c0-0.3-0.1-0.6-0.2-0.9c-1-7-7-12.3-14.2-12.3H17.6c-7.9,0-14.4,6.5-14.4,14.4c0,1.3,1.1,2.4,2.4,2.4h40.8c1.3,0,2.4-1.1,2.4-2.4     c0,0,0,0,0,0s0,0,0,0c0-5.3,4.3-9.6,9.6-9.6s9.6,4.3,9.6,9.6v45.6c0,3.7,1.4,7,3.7,9.6H60.1l-0.7-3.2c2.3-1.2,3.9-3.6,3.9-6.4     c0-4-3.2-7.2-7.2-7.2s-7.2,3.2-7.2,7.2c0,2.6,1.4,4.9,3.5,6.2l-0.7,3.4H34.4c-5.3,0-9.6-4.3-9.6-9.6V28.4c0-1.3-1.1-2.4-2.4-2.4     c-1.3,0-2.4,1.1-2.4,2.4v38.4c0,7.9,6.5,14.4,14.4,14.4h16.3l-1.8,9.1c-0.3,1.3,0.6,2.6,1.9,2.8c0.2,0,0.3,0,0.5,0     c1.1,0,2.1-0.8,2.4-1.9l2-10.1h0.6l2.2,10.1c0.2,1.1,1.2,1.9,2.3,1.9c0.2,0,0.3,0,0.5-0.1c1.3-0.3,2.1-1.6,1.8-2.9l-2-9.1h21.3     c7.9,0,14.4-6.5,14.4-14.4C96.8,65.5,95.7,64.4,94.4,64.4z M44.2,18.8H8.3c1.1-4.1,4.8-7.2,9.3-7.2h30.1     C45.9,13.6,44.7,16.1,44.2,18.8z M58.4,66.8c0,0.1,0,0.2,0,0.3C58.4,67,58.4,66.9,58.4,66.8C58.4,66.8,58.4,66.8,58.4,66.8z      M57.9,65.4C58,65.4,58,65.4,57.9,65.4C58,65.4,58,65.4,57.9,65.4z M58.2,65.8c0,0,0,0.1,0.1,0.1C58.2,65.8,58.2,65.8,58.2,65.8z      M58.4,67.3C58.4,67.3,58.4,67.3,58.4,67.3L58.4,67.3z M53.6,66.3c0-0.1,0.1-0.2,0.1-0.3C53.7,66.1,53.7,66.2,53.6,66.3z      M56.9,64.6c-0.1-0.1-0.3-0.1-0.4-0.1C56.6,64.5,56.8,64.5,56.9,64.6z M56.2,64.4c-0.1,0-0.1,0-0.2,0c0,0,0,0,0,0     C56.1,64.4,56.1,64.4,56.2,64.4z"></path><path d="M32,50h26.4c1.3,0,2.4-1.1,2.4-2.4c0-1.3-1.1-2.4-2.4-2.4H32c-1.3,0-2.4,1.1-2.4,2.4C29.6,48.9,30.7,50,32,50z"></path></g></g></g></svg>