<svg height='100px' width='100px'  fill="#000000" xmlns="http://www.w3.org/2000/svg" xmlns:xlink="http://www.w3.org/1999/xlink" version="1.1" x="0px" y="0px" viewBox="0 0 52 52" enable-background="new 0 0 52 52" xml:space="preserve"><g><path d="M14.3,20.5C14.3,20.5,14.3,20.5,14.3,20.5c4.7-0.1,9.5-0.2,14.2-0.1c0.3,0,0.5-0.2,0.5-0.5c0-0.3-0.2-0.5-0.5-0.5   c-4.7,0-9.5,0-14.3,0.1c-0.3,0-0.5,0.2-0.5,0.5C13.8,20.2,14,20.5,14.3,20.5z"></path><path d="M28.5,40c-4.7,0-9.5,0-14.3,0.1c-0.3,0-0.5,0.2-0.5,0.5c0,0.3,0.2,0.5,0.5,0.5c0,0,0,0,0,0C19,41,23.8,41,28.5,41   c0,0,0,0,0,0C29.1,41,29.1,40,28.5,40z"></path><path d="M24.1,33.7c1.6,3.9,6.8,5.7,10.3,2.2c1.8-1.8,2.2-4.4,1.2-6.9C32,20.3,21.4,27.2,24.1,33.7z M24.6,33.5   c-2.4-5.9,7.2-12.4,10.6-4.4C38.2,36.5,27.6,40.8,24.6,33.5z"></path><path d="M39.6,44c0.7,0.8,1.5,1.7,2.5,2.6c0.5,0.4,1.1,0.7,1.7,0.7c0.7,0,1.4-0.3,1.9-0.9c0.9-1,0.8-2.5-0.1-3.5   c-0.5-0.5-1-0.9-1.6-1.4c-5.8-5-5-5.8-6-5.1l-0.6-0.6c0-0.1,0-0.3,0-0.4c1.1-2.1,1.2-4.7,0.2-7.2c0.5-18.5,0.1-19.1-1.4-20   c-1-0.6-1.4-0.4-9-0.3c-0.3-2.5-0.1-3.3-3.7-2.9c-0.1-0.6-0.2-1.1-0.5-1.7c-0.4-0.7-1.2-1.4-2.2-1.3c-1.8,0.2-2.1,2.1-2.2,3.1   c-2.4,0-3,1-3,2.9C7.7,8.2,7.5,8.4,7.3,8.5c-1.4,1-0.8,3.8-0.8,4.9C5.9,21.6,6.6,22.4,6.1,42c0,0.4-0.1,0.9-0.1,1.5   c-0.1,1.3-0.3,3-0.1,4.2c0.5,3.1,1.2,2,16.2,2c2.7,0,5.6,0,8.6,0.1c1.5,0,3.5,0.3,5,0.1c2.2-0.2,2.1-1,1.9-3.7   c-0.1-1.1-0.2-2.6-0.3-4.7c0.5,0.6,1.2,1.3,2,2.2L39.6,44z M36.5,35c-0.5,1.1-1.3,1.9-2.3,2.6c0,0-0.1,0.1-0.1,0.1   C29.6,40.5,23.8,38,22.7,33c-0.9-4.4,3-9.2,7.6-9.2C35.6,23.8,38.7,30.4,36.5,35z M36.3,37c0,0.4,0,0.8,0,1.1l-0.1,0.1l-0.5-0.5   C35.9,37.4,36.1,37.2,36.3,37z M21,3c0.5,0,1,0.4,1.2,0.8c0.2,0.4,0.3,0.9,0.4,1.3c-1.5,0.2-2,0.2-2.9,0.1C19.8,3.8,20.2,3.1,21,3z    M16.7,8.7c-0.1-3.9,1.3-2,6.3-2.6c0.1,0,0.1,0,0.3,0c3-0.4,2.6-0.1,2.8,1.2c0.4,2.5,0.2,3.3-0.1,3.7C15.6,11.2,16.6,11.9,16.7,8.7   z M30.7,48.8c-3-0.1-5.9-0.1-8.6-0.1c-15.4,0-14.9,0.9-15.3-1.2c-0.2-1.1,0-2.7,0.1-3.9C7,43,7.1,42.5,7.1,42.1   C7.5,27.5,7,10.2,7.9,9.3c0.6-0.1,3.8-0.2,7.8-0.3c0,0.2,0,0.5,0,0.7c0,0.8,0,1.5,0.4,1.9c0.9,0.9,2.8,0.5,9.9,0.3   c1.3,0,1.4-1.8,1.3-3c10.3-0.1,9-0.7,9.3,3.8c0.1,1.5,0.1,11,0,13.6c-2.2-3.3-5.8-4.5-9.5-2.9c-4.3,0-8.6,0-12.9,0.1   c-0.3,0-0.5,0.2-0.5,0.5c0,0.3,0.2,0.5,0.5,0.5h0c3.7-0.1,7.4-0.1,11.2-0.1c-1.3,0.9-2.1,1.9-2.8,3.1c-2.8,0-5.6,0.1-8.4,0.1   c-0.3,0-0.5,0.2-0.5,0.5c0,0.3,0.2,0.5,0.5,0.5h0c2.6-0.1,5.3-0.1,7.9-0.1c-0.4,1-0.6,2.1-0.6,3.1c-2.5,0-4.9,0-7.3,0.1   c-0.3,0-0.5,0.2-0.5,0.5c0,0.3,0.2,0.5,0.5,0.5h0c2.4-0.1,4.9-0.1,7.4-0.1c0,0.2,0,0.3,0.1,0.5c0.2,1,0.6,1.9,1.1,2.7   c-2.9,0-5.7,0-8.6,0.1c-0.3,0-0.5,0.2-0.5,0.5c0,0.3,0.2,0.5,0.5,0.5h0c3.1-0.1,6.2-0.1,9.3-0.1c3.1,3.6,8.4,3.8,11.3,1.4l0.6,0.6   c-0.5,0.5,0.1,1,0.8,1.6c0,2.6,0.2,4.5,0.3,5.8C36.9,49.7,37.1,48.9,30.7,48.8z M36.5,39.4l1.8-1.9c2.1,2.4,3.7,3.7,4.9,4.8   c0.6,0.5,1.1,0.9,1.5,1.4c0.6,0.6,0.6,1.5,0.1,2.1c-0.5,0.6-1.6,0.7-2.2,0.1C40.7,44.1,41.2,44.1,36.5,39.4z"></path></g></svg>