<svg height='100px' width='100px'  fill="#000000" xmlns="http://www.w3.org/2000/svg" xmlns:xlink="http://www.w3.org/1999/xlink" version="1.1" x="0px" y="0px" viewBox="0 0 100 100" enable-background="new 0 0 100 100" xml:space="preserve"><path d="M80.303,0H19.697c-2.789,0-5.051,2.261-5.051,5.05V94.95c0,2.789,2.262,5.05,5.051,5.05h60.605  c2.789,0,5.051-2.261,5.051-5.05V5.05C85.354,2.261,83.092,0,80.303,0z M81.986,94.95c0,0.928-0.755,1.684-1.684,1.684H19.697  c-0.929,0-1.684-0.756-1.684-1.684V5.05c0-0.928,0.755-1.684,1.684-1.684h60.605c0.929,0,1.684,0.756,1.684,1.684V94.95z   M77.507,8.737L20.268,89.689c-0.435,0.615-0.289,1.465,0.326,1.9c0.239,0.169,0.514,0.25,0.785,0.25  c0.428,0,0.849-0.201,1.114-0.576l57.239-80.953c0.435-0.615,0.288-1.465-0.326-1.899S77.941,8.123,77.507,8.737z"></path></svg>