<svg height='100px' width='100px'  fill="#000000" xmlns="http://www.w3.org/2000/svg" xmlns:xlink="http://www.w3.org/1999/xlink" version="1.1" x="0px" y="0px" viewBox="0 0 87.7 99" style="enable-background:new 0 0 87.7 99;" xml:space="preserve"><path d="M31.7,61.6c-1-11.3,12.5-18.5,13-18.8l2.8,5.2c-0.1,0.1-10.5,5.7-9.9,13.1L31.7,61.6z"></path><path d="M38.1,73.8l10.6,5.9c-3,1.9-6.7,3-8.5,3.3l1,5.8c0.4-0.1,7.9-1.4,13.2-6l14.1,7.8l2.9-5.2l-13.2-7.3c0.5-1,0.9-2,1.2-3.2  l-5.8-1.3c-0.1,0.6-0.4,1.1-0.6,1.7l-4.9-2.7l24.3-22.3l-32-19.8l-3.1,5l25.3,15.7L38.1,73.8z"></path><path d="M75,23.5V10.8H64.1V0H0v75.5h10.8v10.8h12.7V99h64.1V23.5H75z M10.8,10.8v17.6c-1.8,2.7-3,5.9-2.7,9.6l2.7-0.2v31.7H5.9V5.9  h52.3v4.9H23.1L16.8,7l-2.4,3.9H10.8z M25.7,23.5h-2.1v13.4c-2.7,3.1-4.9,7.2-4.5,12l4.5-0.4v31.9h-6.8V16.8h52.3v6.8H36.9l-9.2-5.7  l-3.1,5L25.7,23.5z M81.7,93.1H29.4V29.4h52.3V93.1z"></path></svg>