<svg height='100px' width='100px'  fill="#000000" xmlns="http://www.w3.org/2000/svg" xmlns:xlink="http://www.w3.org/1999/xlink" version="1.1" x="0px" y="0px" viewBox="0 0 20 20" enable-background="new 0 0 20 20" xml:space="preserve"><g><path fill="#000000" d="M9.9,6L9.9,6c1,0,2,0.4,2.7,1.2L14,5.8C12.9,4.6,11.4,4,9.9,4h0c-1.6,0-3,0.6-4.2,1.8   c-2.3,2.3-2.3,6.1,0,8.5C6.8,15.4,8.3,16,9.9,16s3-0.6,4.2-1.8l-1.4-1.4c-1.5,1.5-4,1.5-5.4,0c-1.5-1.6-1.5-4.1,0-5.7   C7.9,6.4,8.8,6,9.9,6z"></path><path fill="#000000" d="M10,0C4.5,0,0,4.5,0,10s4.5,10,10,10c5.5,0,10-4.5,10-10S15.5,0,10,0z M10,18c-4.4,0-8-3.6-8-8s3.6-8,8-8   c4.4,0,8,3.6,8,8S14.4,18,10,18z"></path></g></svg>