<svg height='100px' width='100px'  fill="#000000" xmlns="http://www.w3.org/2000/svg" xmlns:xlink="http://www.w3.org/1999/xlink" viewBox="0 0 100 100" version="1.1" x="0px" y="0px"><title>mountains-3 copy</title><desc>Created with Sketch.</desc><g stroke="none" stroke-width="1" fill="none" fill-rule="evenodd"><path d="M65.4262162,80.2375676 L67.8586486,80.2375676 L67.8586486,38.4313514 L65.4262162,38.4313514 L65.4262162,80.2375676 Z M49.0827027,80.2375676 L51.5151351,80.2375676 L51.5151351,38.4313514 L49.0827027,38.4313514 L49.0827027,80.2375676 Z M32.7416216,80.2375676 L35.1740541,80.2375676 L35.1740541,38.4313514 L32.7416216,38.4313514 L32.7416216,80.2375676 Z M85.162973,16.5078378 C85.162973,15.1359459 84.0464865,14.0194595 82.677027,14.0194595 L17.9208108,14.0194595 C16.5489189,14.0194595 15.4324324,15.1359459 15.4324324,16.5078378 L15.4324324,21.0589189 L85.162973,21.0589189 L85.162973,16.5078378 Z M40.6956757,11.587027 L59.9021622,11.587027 L59.9021622,9.91837838 C59.9021622,8.54648649 58.7856757,7.43243243 57.4137838,7.43243243 L43.1840541,7.43243243 C41.8121622,7.43243243 40.6956757,8.54648649 40.6956757,9.91837838 L40.6956757,11.587027 Z M87.5954054,16.5078378 L87.5954054,23.4913514 L13,23.4913514 L13,16.5078378 C13,13.7932432 15.2086486,11.587027 17.9208108,11.587027 L38.2632432,11.587027 L38.2632432,9.91837838 C38.2632432,7.20621622 40.4694595,5 43.1840541,5 L57.4137838,5 C60.1259459,5 62.3345946,7.20621622 62.3345946,9.91837838 L62.3345946,11.587027 L82.677027,11.587027 C85.3891892,11.587027 87.5954054,13.7932432 87.5954054,16.5078378 L87.5954054,16.5078378 Z M81.7697297,30.8445946 L84.2021622,30.8445946 L84.2021622,86.9705405 C84.2021622,91.3975676 80.5997297,95 76.1727027,95 L24.4251351,95 C19.9981081,95 16.3981081,91.3975676 16.3981081,86.9705405 L16.3981081,30.8445946 L18.8305405,30.8445946 L18.8305405,86.9705405 C18.8305405,90.0572973 21.3383784,92.5675676 24.4251351,92.5675676 L76.1727027,92.5675676 C79.2594595,92.5675676 81.7697297,90.0572973 81.7697297,86.9705405 L81.7697297,30.8445946 Z" fill="#000000"></path></g></svg>